<?xml version="1.0" standalone="no"?>
<!DOCTYPE svg PUBLIC "-//W3C//DTD SVG 20010904//EN"
 "http://www.w3.org/TR/2001/REC-SVG-20010904/DTD/svg10.dtd">
<svg version="1.0" xmlns="http://www.w3.org/2000/svg"
 width="160.000000pt" height="160.000000pt" viewBox="0 0 160.000000 160.000000"
 preserveAspectRatio="xMidYMid meet">
<metadata>
Created by potrace 1.14, written by Peter Selinger 2001-2017
</metadata>
<g transform="translate(0.000000,160.000000) scale(0.100000,-0.100000)"
fill="#000000" stroke="none">
<path d="M818 1576 c-70 -15 -124 -56 -156 -119 -21 -40 -23 -51 -14 -91 11
-54 45 -108 82 -129 64 -38 91 -85 104 -184 5 -37 0 -39 -47 -17 -24 11 -46
38 -78 91 -52 90 -115 148 -178 167 -59 18 -160 14 -233 -9 l-58 -19 38 -39
c92 -99 155 -156 188 -172 62 -29 148 -40 221 -28 55 10 72 9 104 -4 22 -8 39
-21 39 -27 0 -7 -11 -36 -25 -64 -14 -29 -30 -72 -37 -96 l-12 -44 -25 16
c-14 9 -51 39 -81 68 -100 93 -206 129 -385 133 -60 1 -122 4 -137 7 -16 3
-28 3 -28 0 0 -20 94 -151 142 -199 121 -119 197 -128 384 -41 59 27 79 32 94
24 26 -14 36 -37 35 -80 0 -34 -1 -35 -40 -36 -64 -3 -199 -14 -215 -19 -8 -2
-31 -7 -50 -10 -19 -3 -48 -14 -65 -24 -27 -16 -30 -22 -29 -67 2 -86 15 -185
26 -204 7 -10 21 -23 33 -28 18 -8 25 -28 40 -112 22 -121 40 -147 117 -179
78 -31 141 -40 248 -36 148 5 263 50 289 113 6 15 18 65 26 112 12 71 19 88
41 104 35 25 43 53 50 155 3 47 7 92 9 99 7 19 -29 50 -72 61 -68 18 -215 34
-310 35 -24 0 -43 5 -44 10 -7 76 -5 81 31 86 23 3 54 -3 93 -18 148 -59 256
-30 407 108 30 28 76 60 103 73 26 12 47 24 47 27 0 3 -43 18 -95 34 -83 25
-104 28 -182 24 -140 -9 -214 -52 -294 -170 -22 -32 -47 -58 -57 -59 -9 0 -28
-2 -41 -5 -22 -4 -23 -2 -16 33 13 70 55 178 76 196 12 9 38 17 58 18 60 1 91
9 141 34 99 50 150 151 155 303 2 85 -4 117 -20 93 -3 -6 -38 -27 -78 -48 -79
-42 -156 -111 -180 -164 -9 -19 -24 -68 -33 -109 -17 -79 -36 -120 -57 -120
-7 0 -14 12 -15 28 -1 15 -11 53 -23 85 l-22 57 29 63 c26 56 29 74 30 177 1
63 5 123 9 133 4 9 6 17 4 16 -2 0 -30 -6 -61 -13z"/>
</g>
</svg>
